<?xml version="1.0" standalone="no"?>
<!DOCTYPE svg PUBLIC "-//W3C//DTD SVG 1.1//EN" "http://www.w3.org/Graphics/SVG/1.1/DTD/svg11.dtd" >
<svg xmlns="http://www.w3.org/2000/svg">
<metadata></metadata>
<defs>
<font id="PictosRegular" horiz-adv-x="1884" >
<font-face units-per-em="2048" ascent="1536" descent="-512" />
<missing-glyph horiz-adv-x="1024" />
<glyph horiz-adv-x="0" />
<glyph horiz-adv-x="2048" />
<glyph unicode=" "  horiz-adv-x="1024" />
<glyph unicode="&#x09;" horiz-adv-x="1024" />
<glyph unicode="&#xa0;" horiz-adv-x="1024" />
<glyph unicode="!" horiz-adv-x="1916" d="M122 -7q-52 91 23 218l635 1094q74 127 180 127t179 -127l633 -1094q75 -127 22 -218t-201 -91h-1271q-148 0 -200 91zM836 1014l53 -631h153l54 631h-260zM856 205q0 -46 32.5 -78.5t76.5 -32.5q46 0 78 32.5t32 78.5t-32 77t-78 31q-45 0 -77 -31.5t-32 -76.5z" />
<glyph unicode="&#x22;" horiz-adv-x="1771" d="M106 49v529v14q1 93 8 169.5t25.5 158t48.5 145.5t79 123.5t115 100.5t158.5 68t207.5 34v-322q-136 0 -195 -95.5t-59 -301.5l-9 -2h172q37 0 64 -27t27 -65v-529q0 -37 -27 -63.5t-64 -26.5h-460q-37 0 -64 26.5t-27 63.5zM1008 49v529q0 10 2 14q0 93 7 169.5t25 158 t48 145.5t79 123.5t115 100.5t159 68t208 34v-322q-137 0 -196.5 -95.5t-59.5 -301.5l-9 -2h173q37 0 63.5 -27t26.5 -65v-529q0 -37 -26.5 -63.5t-63.5 -26.5h-459q-38 0 -65 26.5t-27 63.5z" />
<glyph unicode="#" horiz-adv-x="1531" d="M83.5 966.5q-4.5 8.5 2.5 20.5l64 94q7 12 24 20.5t31 8.5h153v135q0 15 7.5 34t17.5 28l98 100q10 10 29 17.5t33 7.5h442q37 0 62 -25l106 -107q11 -11 19 -29.5t8 -31.5v-129h145q15 0 31.5 -8.5t23.5 -20.5l64 -94q8 -12 3 -20.5t-20 -8.5h-98v-1161q0 -13 -10.5 -24 t-24.5 -11h-1050q-14 0 -24.5 11t-10.5 24v1161h-107q-14 0 -18.5 8.5zM358 -53q0 -13 11 -24t24 -11h752q13 0 24 11t11 24v975q0 13 -9.5 23.5t-23.5 12.5h-572h-182q-14 0 -24.5 -10.5t-10.5 -25.5v-975zM459 45v776q0 14 11 24.5t26 10.5h43q15 0 25.5 -10.5t10.5 -24.5 v-776q0 -14 -10.5 -24.5t-25.5 -10.5h-43q-15 0 -26 10.5t-11 24.5zM508 1110h520v8v58q0 40 -24 61l-19 20q-10 10 -28.5 17.5t-32.5 7.5h-318q-36 0 -61 -25l-13 -12q-24 -24 -24 -61v-66v-8zM709 45v776q0 14 10.5 24.5t25.5 10.5h43q15 0 25 -10.5t10 -24.5v-776 q0 -14 -10 -24.5t-25 -10.5h-43q-15 0 -25.5 10.5t-10.5 24.5zM958 45v776q0 13 11 24t24 11h45q14 0 24.5 -11t10.5 -24v-776q0 -13 -10.5 -24t-24.5 -11h-45q-13 0 -24 11t-11 24z" />
<glyph unicode="$" horiz-adv-x="1828" d="M45 1112q0 29 20.5 49.5t49.5 20.5h360q23 0 42.5 -15.5t25.5 -38.5l37 -149h1030l10 31q6 23 24.5 36t41.5 13q14 0 20 -2q23 -6 37 -25t14 -43q0 -6 -4 -18l-180 -600q-6 -23 -24.5 -37.5t-41.5 -14.5h-854q-25 0 -43.5 15.5t-23.5 38.5l-166 669h-305 q-29 0 -49.5 20.5t-20.5 49.5zM614 840l93 -381h747l4 14l111 367h-955zM678 100q0 59 41.5 100.5t99.5 41.5q59 0 100.5 -42t41.5 -100t-41.5 -99.5t-100.5 -41.5t-100 41.5t-41 99.5zM776 719h254v-139h-221zM1151 580l2 139h248l-37 -139h-213zM1208 100q0 58 42 100 t100 42t99.5 -41.5t41.5 -100.5q0 -58 -41.5 -99.5t-99.5 -41.5q-59 0 -100.5 41.5t-41.5 99.5z" />
<glyph unicode="%" horiz-adv-x="1849" d="M66 410v311q0 43 30 67q25 25 62 25h8l88 -8q69 172 219 289l-4 225v2v2q0 58 51 88q22 14 53 14q30 0 52 -14l262 -147q53 6 104 6q159 0 302.5 -53.5t250.5 -149.5q110 -97 171 -226t61 -274q0 -162 -77 -304.5t-210 -239.5l22 -197v-8q0 -37 -22 -62q-27 -30 -70 -30 h-303q-42 0 -69 30q-23 26 -23 62v10l4 37q-12 -2 -37 -2h-20l4 -35v-10q0 -36 -23 -62q-24 -30 -69 -30h-303q-43 0 -70 30q-23 26 -23 62v10l23 184q-176 122 -254 314l-90 -9h-8q-37 0 -62 25q-30 24 -30 68zM180 434l154 17l14 -45q67 -197 254 -318l31 -18l-27 -230 h252l-18 152l71 -8q27 -4 80 -4q49 0 96 6l74 8l-18 -154h252l-31 238l31 18q125 84 195.5 207t70.5 264q0 118 -50.5 224.5t-142.5 189.5q-93 82 -216 128t-261 46q-59 0 -108 -8l-19 -2l-278 158l4 -267l-25 -16q-161 -118 -217 -295l-14 -45l-154 14v-260zM426 701.5 q10 44.5 47 84.5q38 41 83.5 53.5t70.5 -10.5q23 -23 13 -67.5t-48 -85.5t-82.5 -53.5t-69.5 10.5q-24 24 -14 68.5zM967 1010q1 25 18.5 41t40.5 16l14 -1q15 -1 37.5 -4.5t52.5 -10t65.5 -18.5t72 -28.5t76 -43t73.5 -58.5q17 -15 17 -39t-17 -41q-15 -18 -41 -18 q-23 0 -39 16q-49 48 -121 79.5t-114 39.5t-72 10h-8q-23 1 -39 19t-16 41z" />
<glyph unicode="&#x26;" horiz-adv-x="1499" d="M35 424v405h512v512h405v-512h512v-405h-512v-512h-405v512h-512z" />
<glyph unicode="'" horiz-adv-x="1859" d="M27 801l2 2q183 183 421 278t479 95t479 -95t421 -278q0 -4 4 -4l-115 -115l-4 4q-160 160 -368 243t-418.5 83t-418 -83t-366.5 -243q-2 0 -2 -2zM287 541q130 130 300 198t342 68t342 -68t300 -198l2 -2l-115 -115q0 2 -2 2q-143 143 -335.5 194t-384.5 0.5 t-335 -192.5zM543 285q105 105 245.5 142t281 0t245.5 -142q2 0 2 -2l-113 -113q-2 0 -2 2q-114 112 -273 112t-272 -112zM803 27q54 53 129 53t129 -53l-129 -129z" />
<glyph unicode="(" horiz-adv-x="1374" d="M92 -160v895h154v262q0 179 127 306t305 127h8h8q118 0 217.5 -58t157 -158t57.5 -217v-262h158v-895h-1192zM463 735h448v262q0 89 -64 152t-153 63h-6h-10q-89 0 -152 -63t-63 -152v-262zM553 4h270l-65 289q65 42 65 117q0 57 -39 96t-96 39q-56 0 -95.5 -39 t-39.5 -96q0 -36 18.5 -67t49.5 -48z" />
<glyph unicode=")" horiz-adv-x="1820" d="M51 -162v897h821v262q0 180 127.5 306.5t307.5 126.5h6h8q180 0 307 -126.5t127 -306.5v-262h-217v60l74 69v27h-74v106q0 89 -63 152t-154 63h-4h-10q-91 0 -154 -63t-63 -152v-262h157v-897h-1196zM510 0h272l-67 291q67 41 67 117q0 57 -39.5 97t-95.5 40 q-57 0 -97 -40t-40 -97q0 -36 18.5 -67t49.5 -50z" />
<glyph unicode="*" horiz-adv-x="1591" d="M80 203l399 401l-399 400l315 315l400 -399l399 399l315 -315l-399 -400l399 -401l-315 -314l-399 400l-400 -400z" />
<glyph unicode="+" d="M82 578q0 140 43.5 271.5t123 237t185 185t237 123t271.5 43.5t271.5 -43.5t237 -123t185 -185t123 -237t43.5 -271.5q0 -175 -68 -334.5t-183 -274.5t-274.5 -183.5t-334.5 -68.5t-334.5 68.5t-274.5 183.5t-183 274.5t-68 334.5zM426 537q0 -31 22 -53.5t54 -22.5h246 q31 0 53 -21.5t22 -52.5v-248q0 -31 21.5 -52t52.5 -21h84q31 0 53.5 21.5t22.5 51.5v248q0 31 21 52.5t52 21.5h248q31 0 52.5 22.5t21.5 53.5v84q0 31 -21.5 52t-52.5 21h-248q-30 0 -51.5 22.5t-21.5 53.5v248q0 31 -22.5 52.5t-53.5 21.5h-84q-31 0 -52.5 -21.5 t-21.5 -52.5v-248q0 -31 -22 -53.5t-53 -22.5h-246q-32 0 -54 -21t-22 -52v-84z" />
<glyph unicode="," horiz-adv-x="1873" d="M82 580q0 174 68 332.5t182.5 273t273 182.5t332.5 68t332 -68t272.5 -182.5t182 -273t67.5 -332.5q0 -212 -94 -392q-121 -235 -352 -360q-191 -104 -408 -104q-206 0 -397 98q-235 124 -359 354q-100 192 -100 404zM295 580q0 -80 24 -174q4 -12 19 -52q47 13 92 13 q134 0 229 -94.5t95 -227.5q0 -30 -11 -76q7 -3 25 -8q86 -22 170 -22q92 0 178 24q4 1 11.5 4t11.5 4q-11 50 -11 82q0 132 95 227t227 95q43 0 90 -13q10 26 16 54q23 87 23 164q0 174 -86 322t-234 234.5t-321 86.5q-174 0 -322 -86.5t-234.5 -234.5t-86.5 -322zM393 614 v78h195v-78h-195zM500 948l57 56l137 -138l-55 -57zM700 1100l43 18l277 -436q51 -39 51 -102q0 -30 -10 -50q-15 -36 -47.5 -57.5t-71.5 -21.5q-22 0 -49 10q-36 15 -58 47.5t-22 71.5q0 3 1 9t1 9zM899 963v194h80v-194h-80zM1155 866l139 138l56 -56l-140 -139zM1288 614 v78h197v-78h-197z" />
<glyph unicode="-" horiz-adv-x="1886" d="M82 567q0 175 68 334.5t183.5 275.5t275 184.5t335.5 68.5q175 0 334.5 -68.5t274.5 -184.5t183 -275.5t68 -334.5t-68 -334.5t-183 -275t-274.5 -184t-334.5 -68.5q-176 0 -335.5 68.5t-275 184t-183.5 275t-68 334.5zM459 528q0 -40 28 -68t68 -28h770q40 0 68 28 t28 68v80q0 40 -28 68.5t-68 28.5h-770q-40 0 -68 -28.5t-28 -68.5v-80z" />
<glyph unicode="." horiz-adv-x="1935" d="M113 616q0 77 55 132t133 55q76 0 131 -55t55 -132q0 -78 -54.5 -133t-131.5 -55q-78 0 -133 55t-55 133zM780 616q0 76 55 131.5t132 55.5q78 0 133 -55t55 -132q0 -78 -55 -133t-133 -55q-77 0 -132 55t-55 133zM1446 616q0 76 55.5 131.5t132.5 55.5q78 0 133.5 -55 t55.5 -132q0 -78 -55.5 -133t-133.5 -55q-77 0 -132.5 55t-55.5 133z" />
<glyph unicode="/" horiz-adv-x="1867" d="M82 223v617v260h371v334h966v-334h371v-260v-617h-371v-108l-278 -279h-688v387h-371zM319 342h134v227v37h110v-112v-547h465v278h281v269v112h110v-264h137v403h-1237v-403zM563 1100h746v223h-746v-223zM1456 874h215v109h-215v-109z" />
<glyph unicode="0" horiz-adv-x="1820" d="M55 616l258 258l260 -258h-104h-57q0 -205 146 -350t353 -145q123 0 230.5 56t175.5 153l80 -82l57 -55q-97 -124 -239 -194.5t-304 -70.5q-188 0 -347 92t-251.5 250t-93.5 346h-22h-4h-138zM365 1042q95 125 238 197t308 72q187 0 346.5 -92.5t252 -251.5t92.5 -346v-5 h57h106l-260 -258l-258 258h103h61v5q0 135 -67.5 250t-182.5 182t-250 67q-125 0 -232.5 -58t-176.5 -157l-80 80z" />
<glyph unicode="1" horiz-adv-x="1521" d="M57 420q0 143 56 274t151 225.5t226 150.5t274 56q33 0 51 -2v162v146l100 -103l322 -321l43 -43l-43 -41l-322 -322l-100 -102v143v180q-36 4 -51 4q-169 0 -288.5 -119t-119.5 -288q0 -167 119.5 -286.5t288.5 -119.5q167 0 286 119.5t119 286.5v61h62h178h59v-61 q0 -143 -55.5 -273.5t-150 -225t-225 -150.5t-273.5 -56q-191 0 -354 94.5t-258 257t-95 353.5z" />
<glyph unicode="2" horiz-adv-x="1882" d="M82 575q0 175 68 334.5t183 274.5t274 183.5t333 68.5q175 0 334.5 -68.5t274.5 -183.5t183 -274.5t68 -334.5q0 -140 -43.5 -271.5t-123 -237t-185 -185t-237 -123t-271.5 -43.5q-174 0 -333 68t-274 183t-183 274.5t-68 334.5zM385 514.5q0 -19.5 12 -31.5l285 -286 q12 -12 35 -21.5t41 -9.5h53q41 0 76 31l604 606q12 12 12 31t-12 32l-113 111q-12 12 -31 12t-32 -12l-498 -500q-12 -13 -30.5 -13t-32.5 13l-181 180q-13 13 -32 13t-31 -13l-113 -110q-12 -13 -12 -32.5z" />
<glyph unicode="3" horiz-adv-x="1777" d="M25 538.5q0 29.5 20 49.5l170 170q20 20 48 20t48 -20l279 -277q20 -20 48 -20t48 20l760 762q20 20 48 20t48 -20l170 -168q20 -20 20 -48t-20 -48l-921 -924q-20 -20 -54 -34.5t-63 -14.5h-80q-28 0 -61.5 14.5t-53.5 34.5l-434 434q-20 20 -20 49.5z" />
<glyph unicode="4" horiz-adv-x="1560" d="M121 -2v1436l1438 -719z" />
<glyph unicode="5" horiz-adv-x="1671" d="M121 2v1430h536v-1430h-536zM1014 2v1430h536v-1430h-536z" />
<glyph unicode="6" horiz-adv-x="1673" d="M121 4v1430h1431v-1430h-1431z" />
<glyph unicode="7" horiz-adv-x="1888" d="M121 233v994l745 -373v373l994 -498l-994 -496v371z" />
<glyph unicode="8" horiz-adv-x="1888" d="M29 729l995 496v-373l743 373v-994l-743 373v-373z" />
<glyph unicode="9" d="M82 573q0 175 68 334.5t183 274.5t274.5 183.5t334.5 68.5t334.5 -68.5t274.5 -183.5t183 -274.5t68 -334.5q0 -140 -43.5 -271.5t-123 -237t-185 -185t-237 -123t-271.5 -43.5t-271.5 43.5t-237 123t-185 185t-123 237t-43.5 271.5zM610 131l883 442l-883 443v-885z" />
<glyph unicode=":" horiz-adv-x="1640" d="M51 -4l215 209q-2 16 -2 51v426q0 179 103 322.5t268 201.5q-8 21 -8 54q0 80 56.5 136t135.5 56q80 0 136.5 -56.5t56.5 -135.5q0 -30 -6 -54q164 -58 267 -201.5t103 -322.5v-426q0 -35 -2 -51l215 -209q0 -34 -25 -59t-59 -25h-495q2 -8 2 -25q0 -79 -56.5 -135.5 t-136.5 -56.5q-79 0 -135.5 56.5t-56.5 135.5q0 4 1 12.5t1 12.5h-494q-34 0 -59 25t-25 59zM713 1260q0 -11 4 -31q58 10 102 10q48 0 103 -10q6 15 6 31q0 44 -32 75t-77 31q-44 0 -75 -31t-31 -75z" />
<glyph unicode=";" horiz-adv-x="1816" d="M29 129v229h202q54 0 121 45q60 38 162 140q7 7 148.5 156.5t220.5 215.5q165 132 311 134h180v188l359 -301l-359 -301v184h-180h-2q-48 0 -115 -45q-71 -48 -159 -139q-39 -39 -112 -117.5t-136.5 -143t-122.5 -112.5q-163 -131 -316 -133h-202zM29 819v230h207 q120 -3 241 -84q67 -44 135 -109q-58 -62 -86 -90l-32 -36t-37 -40q-31 28 -56 47q-101 82 -165 82h-207zM817 319q17 18 47 50.5t43 46.5q10 11 32.5 33.5t33.5 35.5q34 -30 53 -45q108 -85 172 -82h176v193l359 -303l-359 -299v180h-176q-115 0 -246 82q-58 39 -135 108z " />
<glyph unicode="&#x3c;" horiz-adv-x="808" d="M6 383v457h230l454 456v-1368l-454 455h-230z" />
<glyph unicode="=" horiz-adv-x="1939" d="M123 143v906h1583v-224l129 -49v-360l-129 -51v-222h-1583zM274 295h1282v602h-1282v-602zM373 393v406h391l455 -406h-846z" />
<glyph unicode="&#x3e;" horiz-adv-x="1820" d="M29 379v457h229l455 456v-1368l-455 455h-229zM819 463q72 59 72 147q0 89 -72 148v4l70 135q70 -47 111.5 -122.5t41.5 -164.5q0 -88 -41 -163t-112 -121zM977 154q121 70 192.5 191t71.5 265t-71.5 265.5t-192.5 191.5v4l67 133q158 -89 253.5 -248t95.5 -346t-94 -345 t-252 -247zM1133 1374l69 137q242 -134 386.5 -374.5t144.5 -526.5t-144.5 -526t-386.5 -373l-67 135q203 115 324.5 318.5t121.5 445.5t-122 446t-326 318z" />
<glyph unicode="?" horiz-adv-x="1888" d="M82 575q0 175 68.5 334.5t184 275.5t275 184.5t334.5 68.5q176 0 335.5 -68.5t275 -184.5t183.5 -275.5t68 -334.5t-68 -334.5t-183.5 -275t-275 -184t-335.5 -68.5q-175 0 -334.5 68.5t-275 184t-184 275t-68.5 334.5zM627 1006l94 -179l20 17q7 5 21.5 12.5t17.5 9.5 q17 10 47 21q20 9 47 12q14 4 44 4q60 0 77 -20q23 -23 23 -64q0 -27 -14 -51q-24 -32 -43 -49q-9 -9 -30.5 -27t-27.5 -24q-34 -30 -61 -70q-27 -46 -41 -94q-10 -45 -10 -84q0 -8 1 -24.5t1 -24.5l2 -23h22h180v25q0 52 17 86q16 31 43 61q33 33 59 51q32 23 66 62 q31 39 51 86q20 50 20 127q0 118 -84 190q-79 70 -221 70q-97 0 -174 -25q-69 -23 -129 -63zM766 156q-3 -57 37 -97q37 -34 98 -34q66 0 100 34q39 36 39 97q0 60 -39 96q-41 35 -100 35q-57 0 -98 -35q-40 -40 -37 -96z" />
<glyph unicode="@" horiz-adv-x="1040" d="M55 983q0 92 36.5 176.5t97.5 146t145.5 98t177.5 36.5h8h8q189 0 323 -135t134 -322q0 -70 -48 -221.5t-116 -317.5t-136.5 -322.5t-116.5 -257.5l-48 -102q-19 39 -50.5 106t-111.5 248t-141 332.5t-111.5 308t-50.5 226.5zM309 1024q0 -88 61.5 -149.5t149.5 -61.5 q86 0 147.5 61.5t61.5 149.5q0 86 -61.5 147.5t-147.5 61.5q-88 0 -149.5 -61.5t-61.5 -147.5z" />
<glyph unicode="A" horiz-adv-x="1828" d="M58 966q0 110 77 187l203 203q78 76 187.5 76t187.5 -76l295 -295q72 -73 76 -177q0 -5 1 -10q0 -98 -63 -172l-143 142q7 15 7 30q0 25 -20 48l-295 295q-19 19 -46 19t-46 -19l-203 -203q-20 -20 -20 -47t20 -47l295 -295q21 -21 44 -21q14 0 30 8l143 -143 q-73 -62 -168 -62q-8 1 -14 1q-104 4 -176 77l-295 295q-77 76 -77 186zM510 881.5q0 41.5 29 70.5t69.5 29t69.5 -29l604 -604q29 -29 29 -70t-29 -69q-29 -29 -69.5 -29t-69.5 29l-604 602q-29 29 -29 70.5zM745 270v11q0 96 62 170l141 -144q-6 -15 -6 -28q0 -25 21 -46 l294 -294q19 -20 46.5 -20t46.5 20l202 202q20 19 20 46t-20 46l-295 297q-19 19 -43 19q-15 0 -32 -8l-142 143q74 63 172 62h10q104 -4 177 -76l295 -295q76 -78 76 -187.5t-76 -187.5l-203 -203q-77 -77 -187 -77t-186 77l-297 297q-72 72 -76 176z" />
<glyph unicode="B" horiz-adv-x="1804" d="M37 565q11 -5 30 -13t78 -24.5t119 -23.5q30 -4 65.5 -4t77.5 4q84 7 160 35q-116 48 -183 162q-38 66 -38 108q0 6 1 11q5 35 41 10q8 -6 18 -15q91 -87 338 -87q45 0 96 3q16 18 43 53v11q0 137 96.5 233t232.5 96q131 0 226 -88.5t104 -218.5l209 -100l-248 -80 q-27 -53 -86 -102q-19 -47 -45.5 -92t-79 -101.5t-118 -97t-167 -69t-221.5 -28.5q-91 0 -174.5 14.5t-148 38.5t-122.5 55.5t-100 66t-77.5 69t-58 66t-38.5 55.5t-23 38zM1190 866q0 -38 27 -65t65 -27q40 0 67 27t27 65q0 40 -27 67.5t-67 27.5q-38 0 -65 -27.5 t-27 -67.5z" />
<glyph unicode="C" horiz-adv-x="1869" d="M74 348q0 92 46 171t124 124q-13 37 -13 72q0 97 69.5 166t166.5 69q78 0 145 -51q63 131 186 211t273 80q212 0 361 -149t149 -361q0 -21 -2 -31q93 -37 151 -121.5t58 -189.5q0 -140 -99 -239t-239 -99q-3 0 -9 1t-9 1h-1012h-2h-4q-141 2 -240.5 103t-99.5 243z" />
<glyph unicode="D" horiz-adv-x="1878" d="M82 571q0 174 68 333t183 274.5t274 183.5t333 68t332.5 -68t273 -183.5t182.5 -274.5t68 -333t-68 -332.5t-182.5 -273t-273 -182.5t-332.5 -68t-333 68t-274 182.5t-183 273t-68 332.5zM462 236.5q0 -33.5 23 -56.5l64 -63q23 -23 56.5 -23t56.5 23l223 223 q23 23 56 23t58 -23l222 -223q23 -23 56 -23t58 23l64 63q23 23 23 56.5t-23 58.5l-223 221q-23 25 -23 57.5t23 57.5l223 221q23 25 23 58.5t-23 56.5l-64 63q-25 23 -58 23t-56 -23l-222 -223q-25 -23 -58 -23t-56 23l-223 223q-23 23 -56.5 23t-56.5 -23l-64 -63 q-23 -23 -23 -56.5t23 -58.5l224 -221q23 -25 23 -57.5t-23 -57.5l-224 -221q-23 -25 -23 -58.5z" />
<glyph unicode="E" horiz-adv-x="1832" d="M61 606v19q8 10 23.5 26.5t65.5 64.5t103 91.5t133 97t159.5 91.5t179 64.5t193.5 26.5t192.5 -25.5t180 -67t158 -91t134 -99t101 -91t66.5 -67.5l22 -25v-17q-8 -10 -23.5 -26.5t-65.5 -65t-103 -92.5t-133 -97.5t-159.5 -92t-179 -65t-193.5 -26.5q-74 0 -151 16 t-144 43t-132 62t-119.5 73.5t-103.5 77.5t-85.5 74t-63.5 62t-41 43zM631 608q0 -118 82.5 -201t199.5 -83q119 0 202 83t83 201q0 117 -83.5 200t-201.5 83q-117 0 -199.5 -83t-82.5 -200zM784 608q0 54 37.5 92.5t91.5 38.5t92.5 -38.5t38.5 -92.5t-38.5 -91.5 t-92.5 -37.5t-91.5 37.5t-37.5 91.5z" />
<glyph unicode="F" horiz-adv-x="1441" d="M109 -242v1323l350 351v2h864v-1676h-1214zM248 -102h936v1396h-584v-352h-352v-1044z" />
<glyph unicode="G" d="M82 569q0 175 68 334.5t183 274.5t274.5 183.5t334.5 68.5t334.5 -68.5t274.5 -183.5t183 -274.5t68 -334.5q0 -140 -43.5 -271.5t-123 -237t-185 -185t-237 -123t-271.5 -43.5t-271.5 43.5t-237 123t-185 185t-123 237t-43.5 271.5zM248 569q0 -188 93 -347.5t253 -252 t348 -92.5q167 0 313 75.5t242 205.5q-19 -5 -19.5 34.5t5.5 49.5q1 0 3 -2q3 -2 4.5 -2t4.5 4q-7 2 -4 12q6 -4 13 -4t7 8q-9 0 -3 8q4 3 5 -2q7 0 8 9.5t3 11.5q0 -22 6 -25q5 -5 -0.5 -9.5t-5.5 -6.5q-4 -2 -4 -13h-7q0 -7 -2 -18t-2 -14q-4 0 -4 -33q129 185 129 403 q0 40 -2 58q-18 0 -26 4q-9 0 -30 9t-34 5q0 2 -2 2q3 5 -10 21q-9 12 -14 2q-1 -1 3 -9.5t7 -11.5q0 -4 4 -12q4 -3 1.5 -7t-1.5 -5q6 0 7 2t3 12q0 -2 2 -2q-3 -7 2 -12v-11q20 0 29 21q2 -1 2 -5t2 -5q6 -6 4 -11q-2 -4 4 -5q3 -1 4 3v4q9 -3 8.5 -11t-8.5 -13 q0 -3 -2 -6.5t-2 -7.5q0 -13 -8 -17q0 -1 -8.5 -5t-17 -9t-7.5 -8q-6 0 -17 -5t-14 -10q-3 0 -11.5 -3t-10.5 -5q-11 0 -17 12.5t-10 12.5q0 1 -4 10q3 0 -2 12.5t-11.5 27t-6.5 17.5q-2 1 -4 5t-3.5 9.5t-2.5 6.5q-4 3 -15 24q-3 2 -11 11.5t-9 15.5q20 0 20 8q-4 0 -4.5 3 t2.5 3q0 1 6 19q0 3 2 11.5t2 12.5q-4 0 -16 -4q-1 -2 -3.5 -1.5t-7 2t-5.5 1.5q-1 2 -14 -0.5t-17 4.5q-4 4 -8 29q-2 6 -17 6q-4 1 -6 0t-1.5 -4l1 -6t1.5 -6t1 -4q3 -1 2 -3.5t-4.5 -8t-3.5 -7.5q-9 2 -12.5 12.5t-7.5 12.5q-4 8 -7 8q0 1 1 6.5t0.5 9t-3.5 4.5 q0 1 -3.5 2.5t-7.5 3t-5 3.5q-3 0 -10.5 6.5t-13.5 11t-9 0.5q0 -5 6 -12q4 1 10.5 -9t14.5 -8v-10q6 1 9.5 -3.5t4.5 -4.5q0 -1 -9 2q-3 1 -3 -1v-3q4 -11 -8 -18q0 24 -6 24q-3 5 -13.5 9.5t-13.5 9.5q-3 0 -7.5 7.5t-8.5 8.5q-4 -4 -11 -4q-2 -4 -9.5 -4.5t-14.5 1.5 l-6 1q-15 -37 -17 -41q-1 -5 -6 -10.5t-6 -10.5q0 -2 -15.5 -3t-15.5 -3q-22 7 -22 27q-1 1 -0.5 9.5t2 19t2.5 12.5l4 -4q3 1 10.5 0.5t12 0.5t4.5 5q9 0 6 -8q18 -6 18 6q-4 0 -4 4q6 8 3.5 14t-8 12.5t-5.5 8.5q-6 3 -8 8q11 -7 19 -4q5 1 1 8v2q4 -4 6.5 -5.5t5.5 3.5 q8 0 10 5q0 1 -3 1v12q7 -3 8 -2t2 6t4 7q0 -6 5 -1q4 5 7 5q2 4 11 5.5t10 6.5q-6 2 -6 25q4 0 11 4q8 4 9 -2q0 -13 2 -13q6 -3 8 -0.5t0 7.5v4q-3 0 -10 20q-6 0 -10 -4q-7 0 -16 2t-13 2q-14 14 -12 14q-2 6 -1 7.5t5 2.5l4 1q0 4 24 10t25 16q-14 0 17 27q20 16 28 16 q2 0 20 4.5t30.5 7t15.5 -0.5q45 0 45 -5q2 0 7.5 -2t8.5 -3t6 1q6 3 22.5 -5t16.5 -15q-7 0 -25.5 -2t-27.5 -2v-4q5 0 11 -9.5t5 -13.5q5 0 12 4t9 4q0 -4 2 -6t4.5 -0.5t3.5 6.5l-2 9q2 5 9 5.5t9 6.5q-97 115 -235 180.5t-293 65.5q-134 0 -256 -49t-217 -138 q1 -1 4 0.5t6 3.5t4 2q0 -12 2 -16q1 -1 2.5 -3t3.5 -5.5t1 -5.5q1 0 4.5 0.5t6 0.5t4.5 -1t3 -4h-10q1 -7 -0.5 -9t-7 0t-7.5 2q0 1 -6 3.5t-10 0.5t0 -10q2 0 2.5 -1t2.5 -2.5t5 -2.5q4 -1 13.5 -3t13.5 -3q4 0 9.5 1t8.5 1q4 2 6 4t-2 4q2 5 -8 8q1 3 5 3.5t10.5 -0.5 t7.5 -1q3 4 2.5 7.5t1.5 7.5q3 4 8.5 4.5t7.5 5.5q7 -4 10 -12l6 -6q18 -18 19 -7q12 -3 12 -22q15 2 15 22q1 0 -1 4q-1 2 -1 3q2 1 4.5 0.5t4 -1t2.5 0t1 2.5q2 0 2 -4q3 -1 6 -1t6 0.5t4 0.5v-23q-1 -3 -4.5 -5.5t-6.5 -3t-3 -1.5q-6 -7 -2.5 -10t13.5 -7.5t12 -7.5 l-17 2q-2 0 -9.5 -1.5t-12 -2t-9.5 1.5q10 0 15 23q-16 3 -23 -11q-1 -7 -7 -6.5t-9 -3.5q-1 0 -6 -2t-8.5 -3t-4.5 1q-5 -1 -8.5 -3t-4.5 -6.5t-1.5 -7t0 -9.5t0.5 -9q23 -17 23 -24q9 -1 19.5 -3t16.5 -3q4 -7 9 -7q0 -8 18 -8q0 11 10 -5q4 -7 4 -9q-1 0 0 -2.5t4 -8.5 l3 -5q-5 0 -2 -3q4 -3 11 -1t7 6q-4 0 -4 12q-12 12 2 16q0 -5 10 0q8 5 0 8q5 18 0 25q-2 2 -5.5 2.5t-4.5 3.5q9 2 2 29h10q3 0 10.5 -2.5t12 -2t6.5 6.5q4 -3 6.5 -5.5t2.5 -3.5t2 -1t7 2q0 -3 8.5 -12t10.5 -9q0 -6 4 -6l-1 -1l-1 -3q14 0 14 2q4 0 8 5t4 11q1 1 3.5 -3 t5 -8.5t5 -8.5t3.5 -4q1 -2 6 -7t8.5 -9t3.5 -7q4 -4 4 -10q1 0 5 4q5 2 6 -2q3 0 8.5 -4.5t5.5 -7.5q-4 0 -3 -4t-1 -4q0 -4 -4.5 -4.5t-11 1t-7.5 1.5q-2 -11 -12 -13t-22 0.5t-23 -0.5q-8 -3 -19.5 -17t-11.5 -22q7 0 16.5 8t12.5 9q4 0 20 8q0 -2 1 -2.5t1 -1.5 q-5 0 -7 -1t-1.5 -3.5t1 -4.5t2.5 -5.5t3 -4.5q7 -10 17 -10q-1 -2 -6 -2.5t-5 -3.5q-10 -5 -10 -6h-11l1 1l2 3h6v8q-5 0 -11.5 -3t-10.5 -3q-8 -8 -13 -8q-5 -20 -12 -25q0 1 -4 -1.5t-8 -5.5l-4 -3l-3 -4q-4 -4 -5 -10q-7 -15 -7 -19q-1 -1 -7 -11.5t-13 -10.5 q-3 -5 -8.5 -9.5t-9 -9.5t-3.5 -14q2 -2 3.5 -8t3 -13.5t2.5 -9.5v-4q1 -12 -9 -12q0 1 -2 4t-3.5 5.5t-0.5 2.5q0 9 -8 25q0 4 -8.5 2.5t-11.5 -0.5q-2 6 -27 6q0 -2 2 -4.5t2 -5.5q-12 -4 -14 -4q-4 1 -9 5t-12 3q-12 -1 -20 -11t-8 -22q-1 0 -1 -17.5t1 -17.5 q0 -4 4 -11.5t4 -10.5q4 0 11.5 -8.5t10.5 -8.5q0 -1 0.5 -3.5t1 -3t3 -1t6.5 -0.5q0 1 3.5 4t4.5 6q-6 2 -3 7.5t7 7.5q0 -6 12 4l12 4q0 3 1 4q2 1 3 -2q0 -4 -2 -6q-4 0 -6 -5l-2 -5q-1 -3 -3 -10.5t-3 -10.5q-1 -4 1 -9t1 -9h27v6q7 0 6 -13.5t2 -13.5q0 -4 2 -11.5 t2 -10.5q10 -7 8 -17q25 0 25 6q14 0 10 -14q13 0 14.5 11.5t4.5 11.5q0 6 4 2q4 -1 8 3q3 2 4 3l6 4q4 -2 4 -4q11 0 19 8q3 -1 7.5 -11t12.5 -10q22 0 27 3q6 -5 6 -7q2 0 3.5 -2t2.5 -2h2q1 -1 2.5 -1.5t3 -2t2.5 -4.5q0 -3 5 -5.5t5 -4.5q2 -1 2 -2.5t2 -2.5l5 -1l18 -6 q1 5 9 -1q2 -1 3 -1q3 -3 4 -5q3 -2 4.5 -3.5t2 -2.5t0.5 -2t0.5 -2.5t1.5 -3.5q3 -3 8 -22q-2 0 -2 -17q-2 0 1 -2q10 -2 11 4q4 0 10 -4t9 -4q-3 -5 2.5 -7t5.5 5q3 0 4.5 -1.5t2 -4.5t0.5 -6t-0.5 -6.5t-0.5 -4.5q4 0 9 3.5t9 3.5q2 0 4.5 -0.5t3.5 -1t2.5 0.5t2.5 3 q13 -5 26 -17q11 -9 11.5 -28.5t-9.5 -28.5l-16 -21q0 -24 -2 -24q0 -29 -6 -29q0 -7 -5.5 -14t-7.5 -12q-2 -2 -13.5 -10t-12.5 -11q-3 0 -8.5 -2t-8.5 -2q0 -1 -4 -5q-6 -7 -4 -7q-1 -3 -1.5 -16.5t-2.5 -16.5q-1 0 -2 -1q-6 -2 -4 -7q-3 0 -3 -2q-3 -2 -7 -2 q-5 0 -11 -5.5t-6 -11.5q-3 -15 -12 -22l-7 -4q-7 -4 -7 -9v-16q-13 0 -17 -8q-9 0 -22 -8q0 -9 -4 -9q0 -5 -2.5 -6t-6 0.5t-6.5 -0.5q1 0 2.5 -3t2 -6t-0.5 -3q0 -4 -1 -6t-2.5 -3.5l-4 -4l-4.5 -4.5q-1 -1 -2.5 -3.5l-3 -5t-2.5 -2.5q0 -3 -1 -9t-1 -9v-6l4 4q0 4 4 1 q5 -3 0 -3q-1 -3 -6 -8t-6 -11q-7 0 -10 -13q0 -6 2 -7q0 -2 4 -10q-3 1 -24 7t-32 11q0 76 9 76q0 18 4 18q0 2 0.5 8t0.5 11.5t-1 9.5q-1 5 3 14.5t5 12.5q5 3 6.5 20.5t2 34t3.5 16.5q0 9 3.5 43t-1.5 41q4 0 -10 14q-4 4 -4 3q-11 0 -19 14t-8 25q-6 18 -6 20 q2 0 -4 9.5t-13 19.5l-7 10q-6 6 -5.5 9t4 11t3.5 13q-8 3 -3.5 21t9.5 18q0 5 6 8q3 -9 8 -2q6 8 -2 8v27q0 17 -8 21q-5 2 -9 -8q-1 -2 -1 -3q-2 1 -7.5 2.5t-10 2.5t-8.5 4t-5 7q1 4 -6 12.5t-11 10.5q3 8 -10.5 17t-21.5 9q0 2 -3.5 3.5t-4.5 3.5q-5 0 -11.5 6t-11.5 6 q-7 0 -20 5t-19 5q-2 4 -13.5 6t-13.5 6q-7 0 -10.5 9.5t-3.5 17.5q0 9 -5 23t-13 14q0 5 -8.5 12.5t-12.5 7.5q-6 15 -10 15q0 7 -11 17q-6 5 -7 1q-1 -3 5.5 -10.5t6.5 -11.5q2 0 16 -27q14 -23 6 -22q-10 2 -20 18l-4 10q-4 1 -9.5 13t-5.5 16q-2 2 -5.5 8t-5.5 11t-1 5 q0 21 -22 21l-15 18q0 5 -6 15.5t-10 11.5q0 4 -1.5 18t-0.5 21q0 46 -21 63q-67 -137 -67 -295zM635 608q2 0 4 -2q0 -6 6 0q0 -5 -7 -5q-4 0 -4 3q0 2 1 4zM657 604q12 0 15 4q7 -1 14 -6.5t12 -5.5q12 -12 4 -12q-15 -3 -24 10q-11 0 -21 10zM678 566v3q8 0 8 -6 q-8 0 -8 3zM688 563q0 5 3 6q2 -1 3 -4q-2 -2 -6 -2zM709 569h14q0 1 -4 9q3 0 10.5 -2.5t11.5 -2.5v7l4 -4q4 -3 6.5 -5.5t2.5 -3.5h-27q-2 -3 -9 -2t-9 4zM731 512q2 2 2 4l2 -2q0 -2 -4 -2zM764 565v4l4 -2q-1 0 -2 -1t-2 -1zM769 567q0 1 1 2q6 0 6 -2q-1 0 -4 -1t-3 1z M803 821q1 3 8 6q0 -6 -8 -6zM995 993q0 1 3 5q2 7 -3 8q15 6 17 6q2 -1 0 -2v-9q1 -2 5 -1t9 3t6 3q5 0 11 2q4 2 5 0.5t1 -7.5q3 -2 4.5 -1.5t2 1.5t2 2.5t3.5 2.5q0 -2 1 -5q2 -3 -3 -6q-9 -6 -21 -6h-22q-5 0 -21 4zM1038 565q0 3 3 8.5t3 8.5q0 21 9 39q1 3 4 8t4 8 q2 4 3.5 5.5t2.5 1t2.5 1t3.5 4.5q3 1 9 9t8 10q5 3 0 8q1 0 4.5 8.5t3.5 11.5q1 2 3 5t3 2q2 -1 6 -1q1 1 3 4.5t4.5 6t4.5 2.5q3 6 13 6q1 -3 4.5 -2.5t9.5 2.5l6 2q3 4 14 9t15 5q3 3 10.5 3t21 -2.5t15.5 -2.5v4q6 -1 14 -19.5t8 -25.5h17q0 -8 20 -8q33 0 33 12 q12 0 12 -12q4 0 11.5 -0.5t17 -1.5t15.5 -3t5 -5q3 0 7.5 -6t7.5 -6q0 -7 5 -18t9 -11q0 -16 10 -23q12 -29 25 -37q-2 -5 2.5 -12.5t5.5 -9.5q2 -12 6 -14q0 -7 10 -23t17 -16q0 -1 -2 -4q-2 -2 1 -3l3 -1q12 0 12 2q21 0 33 6q0 -8 -4.5 -20t-3.5 -19q-6 0 -6 -10 q-1 -1 -3.5 -4.5t-4.5 -5.5t-5 -3q0 -4 -18 -22q-2 -4 -12 -13.5t-11 -13.5q-16 -16 -20 -27q-1 -2 0 -2q0 -1 -0.5 -6.5t-1 -12.5t-0.5 -14t1.5 -11.5t4.5 -4.5q0 -1 2 -13t2.5 -19.5t-2.5 -10.5q0 -6 -4 -14.5t-4 -13.5q-1 -1 -3 -2.5l-4 -3t-3 -3.5q-4 0 -9 -7t-6 -7 q0 -8 -2 -22.5t-2 -22.5q1 0 -1 -7t-4.5 -14t-2.5 -8q-7 -4 -19 -15.5t-12 -18.5q-14 -21 -16 -25q-4 0 -21.5 -3.5t-17.5 -4.5q-2 0 -9 -1.5t-13 -1.5t-9 3q0 4 -2 12.5t-2 13.5q-2 0 -4 7.5t-4 7.5q0 2 -5 13.5t-9 22.5t-2 11q0 3 -3 10.5t-4 7.5q0 8 -5 22t-5 21 q-2 0 -4.5 8.5t-3 16t1.5 8.5q0 9 8 45q2 19 -6 47q-1 0 -4.5 5t-3.5 7q-12 7 -12 31q4 4 6 18.5t0 22.5q-6 2 -29 2q-3 6 -16 7.5t-34 0.5l-20 -2q-1 -3 -9 -2.5t-17 4.5t-10 7q-6 0 -15.5 9.5t-9.5 16.5q-7 3 -16 20t-9 25q-4 2 -5 6.5t0.5 8.5t4.5 4q0 6 -6 24zM1098 877 q-2 2 -2 6t2 10q-3 0 -3 1t5 3q1 0 3 1q7 2 7 3q-8 0 -4 8q1 2 2 1l2.5 -2.5t3.5 -0.5q1 0 5 1t3.5 0t-0.5 -7q-7 -24 -24 -24zM1124 928q0 2 1 3q2 1 5 0.5t5.5 0.5t3.5 6q9 0 3 -4q-2 -2 -3 -2v-8q3 0 5 1t3 2l2.5 2.5t3.5 2.5l-2.5 -5t-2.5 -4.5t-0.5 -3.5t3.5 -4 q9 -9 8 -12q14 0 10 -22q7 0 7 6q3 -1 3 -4.5t-3 -3.5q-7 -11 -31 -11q0 11 -8 6q-6 -1 -5 3q0 2 1 5l2 7l14 2q-1 1 -4 2q-2 9 -5 12.5t-12 3.5q0 4 -2 9q-2 8 -2 10zM1128 864q2 0 2 2h7q0 -3 -3.5 -4t-5.5 2zM1217 762q0 14 4 14q3 -5 4 2q4 0 3 -10q-2 -9 -11 -6z M1219 793q6 -2 7 -1q0 1 -1 3q6 -2 0 -10q-2 -2 -2 -3q-1 2 -4 11zM1247 745q1 4 6 1q3 -1 4 -1q2 -4 7 -1l6 4q0 -5 -1 -7.5t-3.5 -2t-5 1.5t-6.5 2.5t-7 2.5zM1364 784q4 -1 4 -8q51 0 51 6q2 -4 4 -5.5t4 3.5q1 0 9 -6t16 -4l12 6q4 4 -2 4q0 12 -10.5 19.5t-11.5 9.5 q-3 0 -8 2t-9 2q-7 3 -12 -2t-7 -0.5t-5 4.5q0 17 -19 14q-2 -5 -7 -14t-7.5 -16t-1.5 -15zM1507 804q0 -5 4 -5q0 -5 6.5 -13t6.5 -16q0 -1 -1.5 -10t1 -13t10.5 -6q2 -8 12.5 -9.5t12.5 5.5q-7 0 -6 9.5t-1 9.5q0 3 -2.5 6.5t-3.5 5.5h15q0 4 -4.5 9.5t-4.5 8.5 q-1 0 -5 -2q-5 -4 -5 -1v3q0 5 -0.5 6.5t-3 3t-4.5 3.5l-4 14q6 0 12 2q-1 0 8 4q-2 2 -3.5 6t-2.5 5.5t-4 2.5h-2q-2 0 -6 -2q-3 -1 -10 -5.5t-11 -4.5l-2 -6q-2 -6 -2 -11zM1516 274q0 5 4 7q0 -7 -1 -8q-1 0 -3 1z" />
<glyph unicode="H" horiz-adv-x="1771" d="M43 571l844 842l842 -842h-324v-774h-363v482h-311v-482h-375v774h-313z" />
<glyph unicode="I" horiz-adv-x="1908" d="M98 -164v643l322 856h1069l321 -856v-643h-1712zM313 479h404l100 -196h266l109 196h405l-215 660l-856 2z" />
<glyph unicode="J" horiz-adv-x="1765" d="M29 53l250 250l-168 168l755 88l-88 -758l-166 168l-250 -250zM324 692l49 103l403 -140zM748 844l57 10v-174zM897 590l88 756l166 -166l250 250l336 -336l-250 -250l168 -168zM965 299v174l57 -166zM993 498l453 -39l-49 -103z" />
<glyph unicode="K" horiz-adv-x="1779" d="M29 889q0 147 72.5 272t197.5 198t272 73t272 -73t198 -198t73 -272q0 -85 -29 -170l652 -651v-344h-344h-2v264h-263v262h-262l-125 125q-85 -29 -170 -29q-147 0 -272 73t-197.5 198t-72.5 272zM274 1006q0 -75 54.5 -129t130.5 -54q75 0 128.5 54t53.5 129 t-53.5 128.5t-128.5 53.5q-76 0 -130.5 -53.5t-54.5 -128.5z" />
<glyph unicode="L" d="M82 575q0 175 68 334.5t183 274.5t274.5 183.5t334.5 68.5t334.5 -68.5t274.5 -183.5t183 -274.5t68 -334.5q0 -140 -43.5 -271.5t-123 -237t-185 -185t-237 -123t-271.5 -43.5t-271.5 43.5t-237 123t-185 185t-123 237t-43.5 271.5zM297 575q0 -175 86.5 -323.5 t235 -235t323.5 -86.5t323.5 86.5t235 235t86.5 323.5t-86.5 324t-235 235.5t-323.5 86.5t-323.5 -86.5t-235 -235.5t-86.5 -324zM436 569q0 139 68.5 257.5t187 187.5t258.5 69q139 0 257 -69t186.5 -187.5t68.5 -257.5q0 -140 -68.5 -258.5t-186.5 -187t-257 -68.5 q-140 0 -258.5 68.5t-187 187t-68.5 258.5zM582 612q0 -12 2 -18l86 -66q81 147 141 207q66 67 209 144l-62 82q-8 2 -24 2q-82 0 -164.5 -52.5t-135 -135t-52.5 -163.5zM1022 401q0 -34 24.5 -59t59.5 -25q34 0 58 25t24 59q0 35 -24 59.5t-58 24.5q-35 0 -59.5 -24.5 t-24.5 -59.5z" />
<glyph unicode="M" horiz-adv-x="1949" d="M117 98v953q0 15 6 30l559 -479l-559 -536q-6 15 -6 32zM190 1149q20 4 29 4h1512q8 0 28 -4l-563 -481l-74 -62l-147 -119l-148 119l-73 62zM193 0l565 543l217 -178l219 178l563 -543q-16 -4 -26 -4h-1512q-10 0 -26 4zM1268 602l559 479q6 -15 6 -30v-953 q0 -17 -6 -32z" />
<glyph unicode="N" horiz-adv-x="1931" d="M109 74v985q0 35 12 47t47 12h188v195q0 35 12.5 47t47.5 12h1339q35 0 47.5 -12t12.5 -47v-1342q0 -34 -12.5 -46.5t-47.5 -12.5h-221h-1118h-146q-58 0 -109.5 54t-51.5 108zM211 74q0 -15 22.5 -37.5t36.5 -22.5h146h1118h180v1256h-1257v-152v-102v-912h-101v912 h-145v-942zM590 219v76h977v-76h-977zM590 455v75h977v-75h-977zM590 682v457h457v-457h-457zM1188 766v76h379v-76h-379zM1188 999v76h379v-76h-379z" />
<glyph unicode="O" horiz-adv-x="1904" d="M98 -2v1046h142v-1046h-142zM381 -2v1046h106q57 113 123 193t127 80h424q34 0 72.5 -26t73 -68.5t63.5 -87t53 -91.5h97v-1046h-1139zM778 1133q0 -26 18 -45t44 -19h213q26 0 44.5 19t18.5 45t-18.5 43.5t-44.5 17.5h-213q-26 0 -44 -17.5t-18 -43.5zM1663 -2v1046h143 v-1046h-143z" />
<glyph unicode="P" horiz-adv-x="1861" d="M53 948l1260 486l160 -418h292v-1014h-1349v2zM199 885l217 -568v652zM528 115h1125v788h-1125v-788zM541 1016h811l-105 272zM666 209l211 229l135 -86l252 363l77 -146l91 29l118 -389h-884zM670 670q0 44 31 75t75 31t75.5 -31t31.5 -75t-31.5 -75.5t-75.5 -31.5 t-75 31.5t-31 75.5z" />
<glyph unicode="Q" horiz-adv-x="1728" d="M68 473q0 174 71.5 329.5t196.5 266.5q38 32 87 32h8q54 -3 89 -44q33 -36 33 -85q0 -4 -1 -9q-3 -54 -44 -89q-85 -75 -132.5 -179t-47.5 -222q0 -146 71.5 -270t195 -196.5t269.5 -72.5t270 72.5t196 196.5t73 270q0 118 -47.5 221t-132.5 178q-40 37 -43 91q-1 5 -1 9 q0 49 33 85q35 40 89 43h7q50 0 87 -33q125 -111 195.5 -265.5t70.5 -328.5q0 -162 -63 -310t-170 -255t-254.5 -170.5t-309.5 -63.5t-309.5 63.5t-254 170.5t-169.5 255t-63 310zM737 471v834q0 54 37.5 92.5t91.5 38.5t92.5 -38.5t38.5 -92.5v-834q0 -54 -38.5 -92.5 t-92.5 -38.5t-91.5 38.5t-37.5 92.5z" />
<glyph unicode="R" horiz-adv-x="1861" d="M84 0v1071h670q-4 -2 -13.5 -6t-13.5 -6q-177 -79 -289 -203h-141v-641h1071v178l213 144v-537h-1497zM416 422q0 88 25.5 164.5t68 132.5t98 102.5t116.5 77.5t122.5 55t117 37t98 21.5t68.5 11.5l25 2v258l641 -430l-641 -432v280q-186 0 -289 -14q-73 -8 -137 -27.5 t-108.5 -43.5t-81 -51t-58.5 -52.5t-37.5 -46t-21.5 -33.5z" />
<glyph unicode="S" horiz-adv-x="1746" d="M37 748q0 30 16 49q18 18 33 24q25 10 55 10h471q11 0 23 9q14 10 14 20l137 490q8 27 19 43q26 37 67 39q42 -2 68 -39q6 -9 21 -43l135 -490q0 -10 14 -20q12 -9 23 -9h471q20 0 41 -6q30 -8 47 -28q16 -20 16 -42v-7q0 -28 -20 -58q-4 -5 -33 -28l-377 -248 q-5 -2 -11 -14.5t-5 -20.5v-8l165 -486q9 -24 9 -47q0 -28 -15 -51q-10 -15 -27.5 -24t-33.5 -9h-2q-9 0 -17.5 2t-14 3.5t-12.5 5.5t-10 6l-10.5 7t-9.5 7l-389 317q-7 7 -21 7t-18 -7l-371 -315l-5 -5q-6 -4 -7 -4.5t-6 -4t-7 -4.5l-7 -3.5t-9 -3.5t-9 -2.5t-11 -2.5 t-12 -1q-16 -2 -35.5 7.5t-28.5 23.5q-16 23 -16 53q0 15 8 43l147 484v8q1 10 -5 22.5t-11 14.5l-379 250q-22 14 -33 28q-22 26 -22 58z" />
<glyph unicode="T" horiz-adv-x="1841" d="M95 1303.5q0 55.5 38 93.5q40 38 95.5 38t93.5 -38l360 -359l973 246l129 -129l-760 -461l344 -344l305 29l129 -131l-332 -187l-188 -333l-129 131l29 303l-346 346l-459 -760l-129 129l246 973l-361 358q-38 40 -38 95.5z" />
<glyph unicode="U" horiz-adv-x="1830" d="M59 -59v176q0 4 1.5 11.5t13 30.5t31.5 45.5t63.5 53.5t103.5 57q25 11 111 60t178.5 88t192.5 57q-68 70 -148 275q-7 17 -11 34.5t-6.5 30t-3.5 34t-1 31.5v37v37q0 15 -2 64q-1 33 -1 60v25q1 36 7 60q18 65 50 110.5t75.5 70.5t92 36t107.5 11q261 0 324 -228 q7 -24 8 -60v-21q1 -28 -1 -63q-2 -49 -3 -65v-37v-37t-1 -31.5t-3 -34t-6 -30.5t-10 -34q-77 -196 -148 -275q101 -17 193 -55.5t179 -88.5t111 -61q60 -26 104 -56t64.5 -54.5t32.5 -44.5t13 -32l2 -11v-176h-1713z" />
<glyph unicode="V" horiz-adv-x="1943" d="M121 178v887q0 38 27 65t65 27h1044q38 0 65.5 -27t27.5 -65v-213l481 227v-919l-481 227v2v-211q0 -38 -27.5 -65t-65.5 -27h-1044q-38 0 -65 27t-27 65z" />
<glyph unicode="W" horiz-adv-x="1953" d="M119 111v1009q0 104 74 178t178 74h1007q35 0 49 -4l-182 -184h-874q-26 0 -45 -19t-19 -45v-1009q0 -26 19 -45t45 -19h1007q26 0 45 19t19 45v370l188 191v-561q0 -104 -74 -178t-178 -74h-1007q-104 0 -178 74t-74 178zM754 244l129 399l725 725l270 -270l-725 -725z M850 340l270 86l-182 182z" />
<glyph unicode="X" horiz-adv-x="1886" d="M68 244v368l227 252h377v-581q-69 92 -180 92q-68 0 -123 -36t-82 -95h-219zM207 471h330v270h-203l-127 -151v-119zM342 150q0 63 43.5 106t106.5 43q62 0 105.5 -43t43.5 -106q0 -62 -44 -106t-105 -44q-63 0 -106.5 44t-43.5 106zM782 244v866h996v-866h-136 q-27 59 -81.5 95t-122.5 36q-67 0 -122 -36t-83 -95h-451zM1288 150q0 63 44 106t106 43q63 0 106 -43t43 -106q0 -62 -43 -106t-106 -44q-62 0 -106 44t-44 106z" />
<glyph unicode="Y" horiz-adv-x="1763" d="M10 440l332 310l197 -301l350 989l321 -1239l269 845l237 -759l-125 -33l-112 364l-281 -882l-328 1265l-297 -837l-258 395l-165 -156l-46 -41z" />
<glyph unicode="Z" horiz-adv-x="1837" d="M72 487q0 153 59.5 292.5t159.5 241t239.5 161.5t292.5 61v-756h760q0 -154 -60 -294t-161 -241t-241 -160.5t-294 -59.5q-206 0 -379.5 101t-274.5 274.5t-101 379.5zM1014 676v758h2q154 0 294.5 -60t242 -161.5t161.5 -242t60 -294.5h-760z" />
<glyph unicode="[" horiz-adv-x="1763" d="M37 616l874 758v-569h838v-379h-838v-567z" />
<glyph unicode="\" horiz-adv-x="1748" d="M117 -328v1514h182v94q0 71 41.5 110.5t114.5 39.5q74 0 115.5 -40t41.5 -110v-94h107v94q0 70 42 110t116 40q73 0 114 -39.5t41 -110.5v-94h107v94q0 70 41.5 110t115.5 40t116 -40t42 -110v-94h178v-1514h-1515zM244 -203h1261v1053h-1261v-1053zM383 1028 q0 -35 17 -50t55 -15q40 0 56.5 15t16.5 50v252q0 35 -16.5 50.5t-56.5 15.5q-38 0 -55 -15.5t-17 -50.5v-252zM473 37l14 106q71 -28 150 -28q48 0 77 22.5t29 57.5q0 45 -34 66.5t-121 25.5v106q129 9 129 78q0 28 -19 42.5t-67 14.5q-60 0 -125 -30l-14 106q69 31 172 31 q91 0 144.5 -37t53.5 -94q0 -103 -133 -148v-2q75 -21 112.5 -57t37.5 -94q0 -92 -72 -143.5t-184 -51.5q-72 0 -150 29zM803 1028q0 -35 17 -50t57 -15q38 0 54.5 15t16.5 50v252q0 35 -16.5 50.5t-54.5 15.5q-40 0 -57 -15.5t-17 -50.5v-252zM979 535l186 90h64v-607h-129 v451l-107 -41zM1225 1028q0 -35 16.5 -50t54.5 -15q40 0 57 15t17 50v252q0 35 -17 50.5t-57 15.5q-38 0 -54.5 -15.5t-16.5 -50.5v-252z" />
<glyph unicode="]" horiz-adv-x="1763" d="M14 426v379h836v569l876 -758l-876 -757v567h-836z" />
<glyph unicode="^" horiz-adv-x="1587" d="M123 -326v1674q0 35 25.5 60.5t62.5 25.5q35 0 60.5 -25.5t25.5 -60.5v-1674h-174zM397 438v817q20 6 54.5 15t127.5 32t175.5 36.5t167.5 23.5t135.5 -1t50.5 -44q0 -6 -4.5 -29.5t-7.5 -47t-3 -47.5t11 -37.5t33 -10.5q62 7 161 13.5t168 9.5l68 3q5 -11 11 -31 t6 -90.5t-23 -148.5t-25.5 -198t6.5 -201l9 -80q-9 -2 -25 -5t-62.5 -11t-90 -13.5t-99 -11.5t-100 -4.5t-81.5 7t-54 22.5t-9 43q31 97 -93.5 94.5t-377.5 -99.5q-34 -13 -66 -14.5t-48 3.5z" />
<glyph unicode="_" horiz-adv-x="1679" d="M121 406v407h1438v-407h-1438z" />
<glyph unicode="`" horiz-adv-x="1916" d="M121 -217v567l194 -196l312 311l178 -178l-311 -312l194 -194zM121 891v567h567l-194 -194l311 -312l-178 -178l-312 313zM1114 287l178 178l312 -311l194 194v-565h-567l194 194zM1114 952l311 312l-194 194h565v-567l-192 194l-312 -311z" />
<glyph unicode="a" horiz-adv-x="1658" d="M31 193q0 43 30.5 72.5t73.5 29.5t73 -29.5t30 -72.5v-17q19 -16 69.5 -45t77.5 -47q98 -64 295 -68l65 310q9 200 15 393h-279l-106 24q-27 -34 -68 -34q-35 0 -59.5 24t-24.5 58t24.5 57.5t59.5 23.5q46 0 68 -36h389q4 146 6 196q-65 20 -106 74.5t-41 124.5 q0 86 59.5 146.5t144.5 60.5q86 0 146.5 -60.5t60.5 -146.5q0 -68 -40.5 -122t-104.5 -75q1 -15 3.5 -82.5t4.5 -115.5h387q22 36 68 36q35 0 59.5 -23.5t24.5 -57.5t-24.5 -58t-59.5 -24q-45 0 -66 34l-108 -24h-277l12 -393l68 -316q22 -1 43 -1q132 0 203 44 q102 61 196 127q-2 4 -2 13q0 42 31 72t74 30t72.5 -29.5t29.5 -72.5t-30 -74t-72 -31q-4 0 -12.5 1t-12.5 1q-87 -73 -162 -121q-170 -111 -321 -155q-152 -90 -184 -90q-9 0 -27 6.5t-36.5 15t-42 21t-39 21t-32.5 18.5t-18 10q-157 46 -320 153q-78 51 -161 121 q-4 0 -11.5 -1t-11.5 -1q-43 0 -73.5 31t-30.5 74zM719 1231q0 -45 31.5 -77t76.5 -32q46 0 78.5 31.5t32.5 77.5q0 44 -32.5 76t-78.5 32q-44 0 -76 -32t-32 -76z" />
<glyph unicode="b" horiz-adv-x="1882" d="M104 -10v1210l840 232l836 -232v-1210l-836 -234zM246 94l626 -172v899l-626 176v-903zM330 1118l612 -172l614 172l-612 168zM1012 -80l628 174v901l-628 -174v-901z" />
<glyph unicode="c" horiz-adv-x="1859" d="M72 348q0 93 45.5 171.5t122.5 125.5q-11 42 -11 70q0 97 69 165t167 68q79 0 141 -49q63 131 186 211t273 80q138 0 255 -68t185 -185t68 -255q0 -21 -2 -31q93 -39 150 -123t57 -188q0 -138 -98.5 -237t-237.5 -99h-19h-405v332h61h156q25 0 31 13.5t-9 33.5l-296 354 q-17 20 -40 20t-40 -20l-297 -354q-17 -20 -10.5 -33.5t32.5 -13.5h156h61v-332h-405h-2h-2h-4v2q-139 1 -238.5 101.5t-99.5 240.5z" />
<glyph unicode="d" horiz-adv-x="1880" d="M82 573q0 174 68 333t183 274.5t274 183.5t333 68q175 0 334 -68t273.5 -183.5t182.5 -274.5t68 -333q0 -175 -68 -334t-182.5 -273.5t-273.5 -182.5t-334 -68q-174 0 -333 68t-274 182.5t-183 273.5t-68 334zM297 573q0 -174 86.5 -322t234.5 -234.5t322 -86.5 q212 0 375 119l-897 899q-121 -169 -121 -375zM567 1098l897 -897q121 166 121 372q0 174 -86.5 322.5t-235 235t-323.5 86.5q-207 0 -373 -119z" />
<glyph unicode="e" horiz-adv-x="1138" d="M10 -244l490 791h-328l954 885l-395 -701h324z" />
<glyph unicode="f" horiz-adv-x="1867" d="M115 -43q0 94 66.5 160.5t160.5 66.5t160.5 -66.5t66.5 -160.5q0 -95 -66.5 -161t-160.5 -66t-160.5 66t-66.5 161zM115 522v328q228 0 435.5 -88.5t358.5 -239t241 -358t91 -436.5h-328q-1 160 -61.5 304t-173.5 257t-258 173t-305 60zM115 1104v330q174 0 342.5 -35 t319.5 -99t289 -157.5t252.5 -208t208 -253t158 -289.5t100 -320.5t36.5 -343.5h-328q-1 187 -51 365.5t-139 329.5t-216.5 278t-278 215.5t-328.5 138t-365 49.5z" />
<glyph unicode="g" horiz-adv-x="1830" d="M59 2v72q0 2 0.5 5t5 12t12.5 18t26 21t42 22q11 5 44.5 25t71 36t77.5 23q-29 31 -59 110q-9 24 -9 82q0 6 -1 25.5t-0.5 34t3.5 24.5q22 90 129 90q106 0 131 -90q3 -11 3 -84q0 -58 -9 -82q-29 -70 -49 -98q-34 -21 -57.5 -44.5t-33.5 -44.5t-13.5 -35t-3.5 -24v-2 v-96h-310zM442 2v96q0 2 0.5 6.5t7 17.5t18 25.5t36 29.5t57.5 32q12 6 59.5 33t98 48.5t106.5 31.5q-36 41 -80 151q-5 11 -7.5 21t-3.5 23t-1.5 21t0 25.5t0.5 24.5q0 9 -1.5 35.5t-1 46t4.5 32.5q34 125 178 125t181 -125q4 -13 4.5 -32.5t-1 -46t-1.5 -35.5 q0 -81 -13 -115q-44 -111 -82 -151q57 -10 107 -30.5t102 -49.5t60 -33q33 -14 57 -31t35.5 -30.5t18 -25t7.5 -18.5l1 -6v-96h-947zM1292 488q1 14 4 24q25 90 131 90q107 0 132 -90q2 -10 2 -25t-1 -33t-1 -26q0 -58 -9 -82q-30 -79 -59 -110q41 -7 78.5 -22.5t72 -35.5 t44.5 -24q38 -17 59.5 -37t24.5 -31l2 -12v-72h-310v96v2q-9 88 -112 150q-24 38 -45 96q-11 25 -11 82q0 6 -1 26q-1 12 -1 23v11z" />
<glyph unicode="h" horiz-adv-x="1855" d="M68 575q0 153 53 295q9 26 31.5 42t48.5 16q6 0 22 -4l13 -2q119 234 348 346l-4 14q-8 32 7 61t46 41q148 52 295 52q152 0 297 -54q31 -10 46 -39t7 -61l-4 -14q231 -116 348 -346l12 2q16 4 23 4q26 0 48.5 -16t31.5 -42q51 -137 51 -295q0 -157 -51 -294 q-9 -26 -31.5 -42t-50.5 -16q-13 0 -21 2l-14 4q-55 -112 -144 -200.5t-202 -145.5l4 -14q8 -32 -7 -61t-46 -41q-148 -52 -295 -52q-149 0 -297 52q-31 12 -46 41t-7 61l4 14q-230 114 -348 346l-15 -4q-6 -2 -20 -2q-26 0 -48.5 16t-31.5 42q-53 142 -53 294zM154 575 q0 -133 47 -266l338 84q-41 90 -41 182q0 95 43 183l-340 84q-47 -136 -47 -267zM584 319q33 -46 90 -90q10 21 35 35q16 8 36 8q24 0 37 -8q67 -33 148 -33q78 0 145 33q13 8 37 8q21 0 37 -8q24 -14 35 -33q49 35 90 88q-23 13 -35 37q-8 18 -7.5 36t7.5 38q33 65 33 145 q0 79 -33 146q-8 18 -8 36.5t8 37.5q14 24 35 36q-41 54 -90 89q-14 -24 -35 -33q-16 -8 -37 -8q-24 0 -37 8q-67 33 -147 33q-79 0 -146 -33q-13 -8 -37 -8q-20 0 -36 8q-24 14 -35 33q-49 -35 -90 -89q22 -13 34 -36q8 -18 8 -36.5t-8 -37.5q-34 -69 -34 -146 q0 -73 32 -145q9 -20 9 -38t-9 -36q-9 -24 -32 -37zM664 -152q124 -47 266 -47q140 0 264 47l-82 338q-84 -41 -182 -41t-185 41zM664 1303l81 -338q87 41 183 41q97 0 184 -41l82 338q-124 47 -266 47q-140 0 -264 -47zM1317 393l338 -84q47 127 47 266q0 137 -45 267 l-340 -84q41 -84 41 -183q0 -98 -41 -182z" />
<glyph unicode="i" d="M82 571q0 175 68.5 334.5t183.5 274.5t274.5 183.5t333.5 68.5q175 0 334.5 -68.5t274.5 -183.5t183 -274.5t68 -334.5q0 -140 -43.5 -271.5t-123 -237t-185 -185t-237 -123t-271.5 -43.5q-174 0 -333.5 68t-274.5 183t-183.5 274.5t-68.5 334.5zM707 627l32 -92l13 8 q22 20 61.5 47.5t50.5 32.5q0 -13 -6 -43l-88 -373q-12 -62 -12 -123q0 -51 20 -74q18 -20 53 -20q47 0 144 59.5t182 151.5l6 6l-4 8l-37 78l-10 -8q-29 -28 -70.5 -57t-50.5 -31v10q0 14 6 41l95 385q12 53 12 117q0 37 -12 61q-14 25 -45 25q-50 0 -146 -58.5 t-188 -144.5zM915 1028q0 -51 28 -83t75 -32h2q59 0 99 42.5t40 99.5q0 46 -26 75q-32 35 -80 35q-63 -1 -100.5 -44t-37.5 -93z" />
<glyph unicode="j" horiz-adv-x="1796" d="M45 844q0 36 10 88q24 93 92 164l132 129q104 104 251 104t250 -104l158 -156l96 -98l68 -68q80 -80 98 -186q6 -30 6 -64q0 -21 -8 -71q-1 -4 -3 -12.5t-3 -12.5q-4 -18 -27 -70l-2 -2q-2 -3 -5 -9t-5 -9l-2 -4l-2 -2q-5 -10 -10 -15q-1 -1 -2 -3t-2 -3q-8 -8 -11 -14 l-2 -2l-4 -4q-6 -9 -16 -19l-58 -57l-8 10l-116 115q-1 2 -4.5 6t-4.5 6t-2 7.5t-2 7.5l51 51q2 2 7 7.5t8 8.5q0 1 1 2t1 2v2q3 3 8 13q1 1 2 3t2 3q4 8 6 14v2q0 2 2 4q6 21 6 45q0 31 -14 66q-8 15 -29 41l-116 117l-80 79l-125 125q-43 43 -106.5 43t-106.5 -43 l-131 -131q-25 -25 -37 -59q-6 -21 -6 -47q0 -22 6 -43q9 -40 37 -64l201 -200q-2 -12 -2 -35q0 -46 8 -82q21 -133 118 -238q-80 24 -145 86l-4 4l-322 322q-37 37 -59 80q0 2 -2 2v2l-2 2v2q-39 76 -39 162zM592 498q0 34 6 71q1 4 3 12.5t3 12.5q6 27 29 70v2q2 3 5 9 t5 9l2 4l2 2q2 2 5 7.5t5 7.5v2q1 0 5 4q2 2 6 7t6 7v2l4 4q3 3 8 9.5t8 9.5l58 57l8 -10l117 -115q1 -2 4 -6t4 -6t2 -7.5t2 -7.5l-51 -51q-2 -2 -7 -7.5t-8 -8.5q0 -2 -2 -4v-2q-3 -3 -8 -13q-1 -1 -2 -3t-2 -3q-1 -2 -2 -6.5t-2 -7.5l-2 -2v-4q-8 -19 -8 -45 q0 -31 14 -66q8 -15 29 -41l116 -117l82 -79l123 -125q43 -43 107 -43q66 0 106 43l131 131q25 25 37 59q6 21 6 47q0 22 -6 43q-9 40 -37 64l-200 200q2 12 2 35q0 35 -7 82q-25 138 -120 238q79 -23 145 -86l4 -4l322 -322q37 -37 59 -80q0 -2 2 -2v-2l2 -2v-2 q39 -71 39 -162q0 -36 -10 -88q-24 -93 -92 -164l-131 -129q-104 -104 -251.5 -104t-250.5 104l-158 156l-96 98l-68 68q-77 77 -98 186q-4 40 -4 64z" />
<glyph unicode="k" horiz-adv-x="1835" d="M63 819q0 116 35 202t96.5 134.5t134 71t158.5 22.5q61 0 128 -27t119 -65.5t95 -77t66 -65.5l23 -27q9 11 24.5 28.5t63.5 62.5t96 79.5t115.5 63t128.5 28.5q86 0 159 -22.5t134.5 -71t97 -134.5t35.5 -202q0 -64 -22 -131t-53 -117.5t-62.5 -92t-53.5 -63.5l-22 -22 l-641 -639l-642 639q-9 8 -23 23t-51 61.5t-65 94t-51 115.5t-23 132z" />
<glyph unicode="l" horiz-adv-x="1929" d="M115 139q0 55 39.5 95t95.5 40q57 0 97 -39.5t40 -95.5q0 -57 -40 -97t-97 -40q-56 0 -95.5 40t-39.5 97zM115 719q0 57 39.5 97t95.5 40q57 0 97 -40t40 -97q0 -56 -40 -95.5t-97 -39.5q-56 0 -95.5 40t-39.5 95zM115 1298q0 56 40 96t95 40q57 0 97 -40t40 -96 q0 -57 -40 -97t-97 -40q-56 0 -95.5 40t-39.5 97zM571 0v272h1239v-272h-1239zM571 582v272h1239v-272h-1239zM571 1161v273h1239v-273h-1239z" />
<glyph unicode="m" horiz-adv-x="1654" d="M37 -109q0 106 94 182.5t227 76.5q69 0 142 -27v1051h4l897 212l178 44v-170v-1053q-1 -106 -95.5 -180t-226.5 -74q-133 0 -227 75.5t-94 182.5q0 106 94 182t227 76q71 0 144 -27v631l-721 -172v-1014q-2 -106 -96 -181t-226 -75q-133 0 -227 76.5t-94 183.5z" />
<glyph unicode="n" horiz-adv-x="1957" d="M119 -2v1149q0 119 84.5 203t202.5 84h1148q118 0 202.5 -84t84.5 -203v-1149q0 -120 -84 -203.5t-203 -83.5h-1148q-119 0 -203 83.5t-84 203.5zM334 -2q0 -29 21.5 -50.5t50.5 -21.5h124v240h-196v-168zM334 211h196v233h-196v-233zM334 487h196v234h-196v-234z M334 764h196v240h-196v-240zM575 -74h979q29 0 50.5 21.5t21.5 50.5v168h-1051v-240zM575 211h1051v233h-1051v-233zM575 487h1051v234h-1051v-234zM575 764h1051v240h-1051v-240z" />
<glyph unicode="o" horiz-adv-x="1927" d="M119 -10v1075q0 22 14.5 36.5t36.5 14.5h78l59 121q9 19 30.5 32t43.5 13h324q22 0 43 -13t30 -32l58 -121h940q22 0 36.5 -14.5t14.5 -36.5v-1075q0 -22 -14.5 -36.5t-36.5 -14.5h-1606q-22 0 -36.5 14.5t-14.5 36.5z" />
<glyph unicode="p" horiz-adv-x="1751" d="M18 -283l150 465l942 942l313 -313l-942 -942zM332 184l53 -51l776 776l-51 54zM1217 1231l204 205l316 -314l-207 -204z" />
<glyph unicode="q" horiz-adv-x="1863" d="M61 586v485q0 105 74.5 179.5t179.5 74.5h863q104 0 178 -75t74 -179v-485q0 -106 -74 -180t-178 -74h-611q-102 -103 -206 -148t-183 -45q-59 0 -69 19q-3 7 6 14q103 78 135 168q-83 22 -136 90t-53 156zM498 131q62 38 114 88h566q152 0 259 107.5t107 259.5v481 q96 -9 162 -81.5t66 -170.5v-487q0 -87 -53 -154.5t-136 -89.5q30 -90 135 -168q19 -14 -9 -25q-23 -9 -54 -9q-41 0 -96 15q-157 41 -291 179h-613q-86 0 -157 55z" />
<glyph unicode="r" horiz-adv-x="1843" d="M68 141l350 353v-236v-12h991q32 0 55 23t23 55v245l49 49l186 187v-533q0 -262 -262 -262h-1042v-221zM121 418v532q0 260 262 260h1042v222l351 -351l-351 -352v236v12h-991q-32 0 -55 -24t-23 -56v-244l-49 -49z" />
<glyph unicode="s" horiz-adv-x="1769" d="M41 797q0 130 50.5 248t136.5 204t204 136.5t248 50.5t248 -50.5t204 -136.5t136.5 -204t50.5 -248q0 -184 -96 -338l448 -451q47 -47 47 -110q0 -61 -41 -99q-39 -39 -96 -39q-66 0 -113 47l-448 449q-152 -98 -340 -98q-130 0 -248 50.5t-204 136.5t-136.5 204 t-50.5 248zM324 797q0 -148 104 -252.5t252 -104.5t252 104.5t104 252.5t-104 252t-252 104t-252 -104t-104 -252z" />
<glyph unicode="t" horiz-adv-x="1882" d="M82 573q0 140 43.5 270.5t123 236.5t185 185.5t237 123t271.5 43.5q174 0 333 -68t274 -183.5t183 -274.5t68 -333q0 -175 -68 -334.5t-183 -274.5t-274 -183t-333 -68q-140 0 -271.5 43.5t-237 123t-185 185t-123 237t-43.5 271.5zM297 573q0 -175 86.5 -323.5t235 -235 t323.5 -86.5q174 0 322 86.5t234.5 235t86.5 323.5q0 174 -86.5 322.5t-234.5 235t-322 86.5q-175 0 -323.5 -86.5t-235 -235t-86.5 -322.5zM852 539v467q0 14 10 24q13 10 27 10h94q15 0 25 -10t10 -24v-396l340 -229q12 -9 15 -23q1 -4 1 -7q0 -10 -6 -19l-49 -80 q-9 -13 -23 -16h-8q-11 0 -20 6l-396 264q-2 1 -5 3t-5 3q-10 13 -10 27z" />
<glyph unicode="u" horiz-adv-x="1955" d="M123 -86v1378h1710v-1378h-1710zM266 57h1424v1094h-1424v-1094zM371 236q0 37 26.5 63.5t63.5 26.5t62.5 -26.5t25.5 -63.5t-25.5 -63t-62.5 -26t-63.5 26t-26.5 63zM371 973q0 37 26.5 62.5t63.5 25.5t62.5 -25.5t25.5 -62.5t-25.5 -63.5t-62.5 -26.5t-63.5 26.5 t-26.5 63.5zM748 270v666h466v-666h-466zM868 371h224v241h-224v-241zM1407 236q0 37 26.5 63.5t63.5 26.5t62.5 -26.5t25.5 -63.5t-25.5 -63t-62.5 -26t-63.5 26t-26.5 63zM1407 973q0 37 26.5 62.5t63.5 25.5t62.5 -25.5t25.5 -62.5t-25.5 -63.5t-62.5 -26.5t-63.5 26.5 t-26.5 63.5z" />
<glyph unicode="v" horiz-adv-x="1935" d="M113 125v967q0 20 14.5 34.5t36.5 14.5h354q0 2 2 2l47 98q9 18 31 31.5t43 13.5h653q22 0 43.5 -13t30.5 -32l49 -98v-2h357q22 0 36.5 -14.5t14.5 -34.5v-967q0 -22 -14.5 -36.5t-36.5 -14.5h-1610q-22 0 -36.5 14.5t-14.5 36.5zM598 614q0 -153 108 -260.5t261 -107.5 q154 0 262 107t108 261t-108 262.5t-262 108.5q-152 0 -260.5 -108.5t-108.5 -262.5z" />
<glyph unicode="w" horiz-adv-x="1898" d="M113 623q-4 34 -4 67q-1 103 39 203q52 133 156 236.5t255 174.5t324 91q61 7 121 7q165 0 316 -51q206 -69 338 -212t154 -326q4 -33 4 -66q0 -148 -78 -286q-96 -168 -281.5 -280.5t-416.5 -137.5q-62 -8 -123.5 -7.5t-121.5 7.5q-166 -171 -358 -211q-48 -10 -84 -10 q-38 0 -63 11q-27 12 -7 26q164 125 164 272q0 12 -1 25q-140 79 -228 200.5t-105 266.5z" />
<glyph unicode="x" horiz-adv-x="1943" d="M70 1065q0 3 34 37l44.5 -44.5t34.5 -35.5t27 -25.5t21 -19.5t17 -12t14.5 -8t15 -3.5t16.5 -2t21 0.5h27q60 0 134.5 74t74.5 135v22v8q0 41 -10 59q-12 21 -86 94l-1 1l-1 1l-1 1l-1 1l-1 1l-1 1q-30 29 -48 47q32 37 37 37h3q97 0 189 -56q93 -57 149.5 -150 t56.5 -192q0 -52 -33 -116l158 -160l-201 -201q-13 0 -33 -4l-145 143q-65 -30 -115 -30q-99 0 -191 56.5t-148.5 148.5t-57.5 192zM246 -94q-2 10 -2 19q0 31 24 55q8 4 13 12l413 414q10 7 13 12q22 22 57 22q18 0 39 -6l397 397q1 1 10.5 15t13 20t10.5 21.5t8 27.5 t-1 29.5t-10 34.5q-33 61 -123 78h-2q-9 0 -20 4t-18.5 8t-20 14t-17.5 15t-19.5 18.5t-17.5 16.5l-12 12l-7 7q-24 24 -30 34t0.5 25t32.5 40l147 150q35 35 54 35q2 0 4.5 -0.5t5 -2t4.5 -2.5t5.5 -4t5.5 -4.5t6 -5.5l6.5 -6.5l7.5 -7.5l8 -8l12 -13q1 -1 11.5 -11t13 -13 t11 -12t11.5 -13t9.5 -12t9 -13.5t6 -12.5t4.5 -13q8 -42 49 -94q6 -8 37 -8.5t39 -8.5q40 -40 126 -125.5t118 -117.5q38 -38 60 -92.5t27 -111.5q3 -38 3 -78v-40q-2 -60 -12.5 -112.5t-21 -94t-18.5 -65.5l-8 -25l-108 105q1 5 1.5 15t0.5 39t-2.5 57t-11 65t-22.5 68.5 t-39 62t-58 49.5h-6q-21 0 -70 -45l-447 -444q6 -21 6 -39q0 -35 -22 -58q-4 -2 -14 -12q-326 -328 -412 -412q-10 -10 -12 -14q-22 -22 -60 -22q-39 0 -83.5 28.5t-73.5 69t-39 84.5zM1077 205q4 20 4 33l201 200l285 -284l192 -142l21 -78l-213 -213l-76 21l-143 192z M1458 -45q0 -37 25.5 -62.5t62.5 -25.5q38 0 64 25.5t26 62.5q0 38 -26 64t-64 26q-37 0 -62.5 -26t-25.5 -64z" />
<glyph unicode="y" horiz-adv-x="1837" d="M66 483v199q0 19 13 34.5t32 18.5l254 47q19 5 24.5 18.5t-4.5 28.5l-147 218q-9 15 -7 35.5t15 33.5l139 139q14 14 34.5 16.5t37.5 -7.5l215 -148q15 -9 29.5 -3t17.5 24l47 254q3 19 18.5 32t34.5 13h199q19 0 34.5 -13t18.5 -32l47 -254q3 -18 17.5 -24t29.5 3 l217 148q15 10 35.5 7.5t34.5 -16.5l139 -139q13 -13 15 -33.5t-7 -35.5l-147 -218q-10 -15 -4 -28.5t25 -18.5l253 -47q19 -3 32.5 -18.5t13.5 -34.5v-199q0 -19 -13.5 -34.5t-32.5 -18.5l-253 -47q-19 -3 -25 -16.5t4 -28.5l147 -217q9 -15 7 -37t-15 -35l-139 -139 q-13 -13 -34 -15t-36 9l-217 145q-15 11 -29.5 5.5t-17.5 -23.5l-47 -256q-3 -19 -18.5 -32t-34.5 -13h-199q-19 0 -34.5 13t-18.5 32l-47 256q-3 18 -17.5 23.5t-29.5 -5.5l-215 -145q-17 -11 -38 -9t-34 15l-139 139q-13 13 -15 35t7 37l147 217q11 15 5 28.5t-25 16.5 l-254 47q-19 3 -32 18.5t-13 34.5zM610 582q0 -128 90 -218t218 -90q129 0 219 90t90 218t-90 218.5t-219 90.5q-127 0 -217.5 -90.5t-90.5 -218.5z" />
<glyph unicode="z" horiz-adv-x="1507" d="M70 1241v7q0 15 6 33q8 22 22 34l88 90q31 27 70 27h6l387 -35q44 -4 74 -37l717 -715q14 -13 14 -32t-14 -31l-520 -523q-15 -12 -33 -12q-19 0 -31 12l-717 717q-32 36 -35 76zM88 666l686 -686q48 -48 113 -48q67 0 112 48l361 360l80 -80q14 -14 14 -32t-14 -31 l-520 -521q-14 -14 -32 -14t-32 14l-717 717q-12 12 -23 34t-12 40zM207 1196q0 -40 29 -68q26 -26 67 -26q42 0 68 26q28 28 28 68t-28 68t-68 28q-39 0 -67 -28q-29 -28 -29 -68z" />
<glyph unicode="{" horiz-adv-x="1560" d="M23 612l757 877l758 -877h-569v-835h-379v835h-567z" />
<glyph unicode="|" horiz-adv-x="1873" d="M82 645v500q0 119 83 202t202 83h712q119 0 202 -83t83 -202v-215h-213v215q0 29 -21.5 50.5t-50.5 21.5h-712q-29 0 -50.5 -21.5t-21.5 -50.5v-500q0 -29 21.5 -50.5t50.5 -21.5h6q-6 -34 -6 -71v-142q-119 0 -202 83t-83 202zM510 4v498q0 119 83.5 202.5t201.5 83.5 h712q117 0 201 -84t84 -202v-498q0 -118 -84 -202.5t-201 -84.5h-712q-118 0 -201.5 84t-83.5 203zM723 4q0 -30 21 -51t51 -21h712q29 0 49.5 20.5t20.5 51.5v498q0 30 -20.5 50.5t-49.5 20.5h-712q-30 0 -51 -20.5t-21 -50.5v-498z" />
<glyph unicode="}" horiz-adv-x="1560" d="M23 616h567v838h379v-838h569l-758 -874z" />
<glyph unicode="~" d="M82 571q0 175 68 334.5t183 274.5t274.5 183.5t334.5 68.5t334.5 -68.5t274.5 -183.5t183 -274.5t68 -334.5q0 -140 -43.5 -271.5t-123 -237t-185 -185t-237 -123t-271.5 -43.5t-271.5 43.5t-237 123t-185 185t-123 237t-43.5 271.5zM594 70h297l-80 -80h258l-80 80h297 v475h-340l297 342h-229v276h-154v-276h-229l295 -342h-332v-475zM682 156v303h518v-303h-518z" />
<glyph unicode="&#xad;" horiz-adv-x="1886" d="M82 567q0 175 68 334.5t183.5 275.5t275 184.5t335.5 68.5q175 0 334.5 -68.5t274.5 -184.5t183 -275.5t68 -334.5t-68 -334.5t-183 -275t-274.5 -184t-334.5 -68.5q-176 0 -335.5 68.5t-275 184t-183.5 275t-68 334.5zM459 528q0 -40 28 -68t68 -28h770q40 0 68 28 t28 68v80q0 40 -28 68.5t-68 28.5h-770q-40 0 -68 -28.5t-28 -68.5v-80z" />
<glyph unicode="&#xff;" horiz-adv-x="1705" />
<glyph unicode="&#x2000;" horiz-adv-x="755" />
<glyph unicode="&#x2001;" horiz-adv-x="1511" />
<glyph unicode="&#x2002;" horiz-adv-x="755" />
<glyph unicode="&#x2003;" horiz-adv-x="1511" />
<glyph unicode="&#x2004;" horiz-adv-x="503" />
<glyph unicode="&#x2005;" horiz-adv-x="377" />
<glyph unicode="&#x2006;" horiz-adv-x="251" />
<glyph unicode="&#x2007;" horiz-adv-x="251" />
<glyph unicode="&#x2008;" horiz-adv-x="188" />
<glyph unicode="&#x2009;" horiz-adv-x="302" />
<glyph unicode="&#x200a;" horiz-adv-x="83" />
<glyph unicode="&#x2010;" horiz-adv-x="1886" d="M82 567q0 175 68 334.5t183.5 275.5t275 184.5t335.5 68.5q175 0 334.5 -68.5t274.5 -184.5t183 -275.5t68 -334.5t-68 -334.5t-183 -275t-274.5 -184t-334.5 -68.5q-176 0 -335.5 68.5t-275 184t-183.5 275t-68 334.5zM459 528q0 -40 28 -68t68 -28h770q40 0 68 28 t28 68v80q0 40 -28 68.5t-68 28.5h-770q-40 0 -68 -28.5t-28 -68.5v-80z" />
<glyph unicode="&#x2011;" horiz-adv-x="1886" d="M82 567q0 175 68 334.5t183.5 275.5t275 184.5t335.5 68.5q175 0 334.5 -68.5t274.5 -184.5t183 -275.5t68 -334.5t-68 -334.5t-183 -275t-274.5 -184t-334.5 -68.5q-176 0 -335.5 68.5t-275 184t-183.5 275t-68 334.5zM459 528q0 -40 28 -68t68 -28h770q40 0 68 28 t28 68v80q0 40 -28 68.5t-68 28.5h-770q-40 0 -68 -28.5t-28 -68.5v-80z" />
<glyph unicode="&#x2012;" horiz-adv-x="1886" d="M82 567q0 175 68 334.5t183.5 275.5t275 184.5t335.5 68.5q175 0 334.5 -68.5t274.5 -184.5t183 -275.5t68 -334.5t-68 -334.5t-183 -275t-274.5 -184t-334.5 -68.5q-176 0 -335.5 68.5t-275 184t-183.5 275t-68 334.5zM459 528q0 -40 28 -68t68 -28h770q40 0 68 28 t28 68v80q0 40 -28 68.5t-68 28.5h-770q-40 0 -68 -28.5t-28 -68.5v-80z" />
<glyph unicode="&#x2013;" horiz-adv-x="1188" d="M82 567q0 175 40.5 334.5t109 275.5t163.5 184.5t200 68.5q104 0 198.5 -68.5t163 -184.5t109 -275.5t40.5 -334.5t-40.5 -334.5t-109 -275t-163 -184t-198.5 -68.5q-105 0 -200 68.5t-163.5 184t-109 275t-40.5 334.5zM306 528q0 -40 16.5 -68t40.5 -28h458 q24 0 40.5 28t16.5 68v80q0 40 -16.5 68.5t-40.5 28.5h-458q-24 0 -40.5 -28.5t-16.5 -68.5v-80z" />
<glyph unicode="&#x2014;" horiz-adv-x="2212" d="M82 567q0 175 81 334.5t218 275.5t327 184.5t399 68.5q208 0 398 -68.5t326.5 -184.5t217.5 -275.5t81 -334.5t-81 -334.5t-217.5 -275t-326.5 -184t-398 -68.5q-209 0 -399 68.5t-327 184t-218 275t-81 334.5zM530 528q0 -40 33.5 -68t81.5 -28h915q48 0 81 28t33 68v80 q0 40 -33 68.5t-81 28.5h-915q-48 0 -81.5 -28.5t-33.5 -68.5v-80z" />
<glyph unicode="&#x202f;" horiz-adv-x="302" />
<glyph unicode="&#x205f;" horiz-adv-x="377" />
<glyph unicode="&#xe000;" horiz-adv-x="1433" d="M0 0v1434h1434v-1434h-1434z" />
</font>
</defs>
</svg>
